<svg width="26" height="45" viewBox="0 0 26 45" fill="none" xmlns="http://www.w3.org/2000/svg">
<path d="M1.91204 6.74962C1.94314 6.76879 2.02724 6.88591 2.07301 6.92746C1.95695 6.94296 1.79969 6.68063 1.91204 6.74962ZM11.2132 6.51897C11.1608 6.49853 11.1085 6.47809 11.0561 6.45765C11.1469 6.57234 11.2957 6.70044 11.3742 6.81248C11.387 6.83087 11.2989 6.83679 11.3332 6.87629C11.3676 6.91579 11.4263 6.84443 11.4864 6.89198C11.5536 6.94552 11.7805 7.26969 11.876 7.36539C12.2336 7.72305 12.6274 8.05152 12.9539 8.44088C12.54 8.11388 12.8586 8.53951 12.982 8.62383C13.0096 8.64231 13.1282 8.51935 13.4639 8.92508C13.6773 9.1829 13.2875 9.13285 13.7637 9.44587C13.587 9.02023 13.8724 9.32987 14.1108 9.56607C14.1519 9.60677 14.4597 9.95907 14.6093 10.1015C14.6604 10.1502 14.7996 10.1647 14.8667 10.2301C14.9128 10.2752 14.9118 10.3442 14.9804 10.411C15.2999 10.7226 15.609 11.034 15.9092 11.3654C15.5623 11.339 15.9823 11.5806 15.989 11.6032C16.0187 11.723 15.6697 11.3907 15.7748 11.5543C15.9657 11.7398 16.1567 11.9254 16.3476 12.1109C16.2153 11.9348 16.6881 12.1827 16.6995 12.3021C16.8162 12.1308 17.42 13.2938 17.6019 13.3831C17.6399 13.4015 17.53 13.1451 17.9188 13.6094C17.9608 13.6597 17.8996 13.6848 17.9277 13.7054C17.9445 13.7177 18.1707 13.6707 18.1862 13.8406C18.1918 13.9027 17.8842 13.7705 18.3955 14.221C18.3484 13.8889 19.1303 14.8204 19.2505 15.0148C19.2385 14.9643 19.2264 14.9138 19.2143 14.8633C19.3169 15.0713 19.393 15.0528 19.425 15.0909C19.5543 15.2445 19.6979 15.489 19.8326 15.6182C19.9902 15.7695 20.0789 15.6839 20.2223 15.8995C20.1996 15.8373 20.1769 15.7751 20.1542 15.7129C20.2723 15.8433 20.3903 15.9736 20.5084 16.104C20.1073 15.9267 20.5641 16.1723 20.5894 16.1932C20.6299 16.2263 20.53 16.2194 20.5966 16.2759C20.6039 16.2813 20.6399 16.2281 20.7385 16.3191C20.9445 16.5094 20.8569 16.5329 20.9397 16.6165C20.9475 16.6239 20.9617 16.5573 21.1131 16.6933C21.5943 17.1254 21.0798 16.7213 21.0569 16.7091C21.0268 16.693 21.0118 17.0168 20.689 16.5658C20.7985 16.7162 20.7363 16.8026 20.749 16.8193C20.7602 16.8339 20.9935 17.0519 21.0084 17.062C21.1433 17.1493 21.0983 17.0006 21.1288 17.0135C21.1537 17.0241 21.3552 17.3643 21.5723 17.2784C21.5584 17.5487 21.3692 17.3287 21.132 17.1294C21.0714 17.1256 21.2795 17.3957 21.292 17.4083C21.5972 17.7206 21.5454 17.4334 21.6868 17.4288C21.761 17.4265 21.8054 17.6318 21.7956 17.4118C22.0835 17.6847 21.8548 17.572 21.8637 17.5991C21.8775 17.6396 22.0044 17.7096 22.0125 17.7259C22.0244 17.7499 21.9262 17.722 21.9835 17.8064C21.9933 17.8201 22.1689 17.875 22.053 17.6965C22.2389 17.9047 22.2761 17.8363 22.2348 18.0088C22.5721 17.948 22.212 18.2257 22.2534 18.291C22.3638 18.4642 22.4826 18.2668 22.4978 18.2668C22.5988 18.2706 22.9328 18.7226 23.0521 18.7988C22.8992 18.872 22.7426 18.4841 22.6599 18.4439C22.3843 18.3098 22.8864 18.791 22.5957 18.7819C22.6967 18.8061 22.7977 18.8303 22.8987 18.8545C22.9183 19.0603 22.7182 18.9363 23.0548 19.2134C23.1845 19.186 22.8282 19.0064 22.9442 18.999C23.0124 18.9948 23.1958 19.167 23.2188 19.1514C23.2458 19.132 23.0593 18.9966 23.1205 18.987C23.2531 18.9668 23.7573 19.6323 23.2743 19.2224C23.3823 19.3308 23.3269 19.5085 23.4125 19.5938L25.379 21.1715L23.4125 23.7504C23.4001 23.7636 23.3898 23.7798 23.3822 23.8002C23.3682 23.838 23.4435 23.8354 23.511 23.8465L25.5683 21.1483L23.511 19.4977C23.5218 19.4403 23.5426 19.3889 23.6056 19.4054L25.7503 21.1261L23.6056 23.9388C23.5913 23.9995 23.5158 24.1003 23.3259 24.2709C23.2402 24.2121 23.5367 24.0115 23.5374 23.9996C23.5383 23.9825 23.3286 23.8666 23.3128 23.8665C23.2588 23.868 22.7536 24.563 22.545 24.6105C22.6903 24.6529 22.1134 25.0871 22.0883 25.1711C22.0819 25.1938 22.1944 25.1955 22.1852 25.2174C22.1257 25.3522 21.7605 25.5173 21.6369 25.6386C21.4986 25.7743 21.5663 25.8061 21.5586 25.8138C21.4962 25.872 21.5095 25.7898 21.4732 25.8272C21.4184 25.8838 21.0335 26.2642 21.0217 26.2906C21.0184 26.2985 21.1378 26.2916 21.0664 26.3868C21.0541 26.4032 20.9946 26.3272 20.7802 26.6061C20.522 26.9419 21.0694 26.48 21.0191 26.6751C20.7282 26.769 20.8356 26.8614 20.7764 26.9061C20.7558 26.9214 20.5379 26.9727 20.4001 27.1248C20.489 27.0058 20.5778 26.8868 20.6666 26.7678C20.5505 26.8567 20.3729 27.076 20.2726 27.1448C20.2237 27.1783 20.1865 27.075 20.1002 27.1673C20.0822 27.1873 20.1801 27.4314 20.334 27.1192C20.4139 27.1602 20.2639 27.2339 20.2303 27.3031C20.2253 27.3137 20.2976 27.4451 20.1686 27.4496C20.1372 27.4503 20.0079 26.9834 19.7855 27.6452C19.7784 27.6665 19.8651 27.6527 19.859 27.6745C19.8549 27.6893 19.7276 27.7895 19.7205 27.8073C19.7135 27.8259 19.8087 27.8104 19.8016 27.8337C19.7658 27.9535 19.5018 27.899 19.6737 27.7476C19.6003 27.7827 19.5269 27.8177 19.4535 27.8528C19.633 27.9138 19.4043 27.9722 19.3343 28.0515C18.8857 28.5595 19.2819 28.3128 19.2418 28.4363C19.1773 28.6348 19.0675 28.328 18.9365 28.5883C18.9244 28.6125 19.2479 28.4588 18.7397 28.8793C18.8038 28.8067 18.868 28.734 18.9321 28.6613C18.7747 28.5857 18.6961 28.9194 18.682 28.9372C18.5185 29.1374 18.5973 28.9711 18.3913 29.3044C18.3729 29.3342 18.2917 29.3589 18.2553 29.4254C18.104 29.7007 18.5707 29.175 18.6321 29.2081C18.6619 29.2245 18.1287 29.7593 18.0994 29.7669C17.9731 29.7975 18.3167 29.5006 18.195 29.5025C18.1513 29.5037 17.4444 30.3178 17.2698 30.4491C17.0679 30.6003 16.829 30.5239 17.0084 30.7011C16.7821 30.5786 16.8596 30.741 16.8361 30.7626C16.5506 31.0224 16.5483 31.0212 16.3345 31.2743C16.2873 31.3301 16.1905 31.3218 16.1816 31.3491C16.1766 31.3652 16.2537 31.4012 16.22 31.4712C16.1729 31.568 15.6848 31.95 15.6211 31.9517C15.5575 31.9533 15.7885 31.7525 15.6981 31.7407C15.5386 31.8936 15.4036 32.0578 15.2429 32.2115C15.176 32.2752 15.1725 32.2055 15.1439 32.2334C15.1316 32.2451 14.9412 32.5047 14.9641 32.5082C15.0176 32.5162 15.684 31.7909 15.567 32.039C15.5445 32.0868 15.3367 32.1311 15.4589 32.211C14.8214 32.8179 14.184 33.4248 13.5465 34.0317C13.8227 33.5951 14.2885 33.255 14.6509 32.8691C14.7007 32.8163 14.8818 32.6504 14.8092 32.6212C14.4815 32.9303 14.1177 33.3571 13.7821 33.6336C13.7713 33.6424 13.7602 33.5606 13.7167 33.5905C13.6353 33.6464 13.4901 33.9453 13.4337 33.9644C13.4228 33.9664 13.4868 33.7781 13.4097 33.7791C13.2118 33.7817 13.4086 34.0235 13.3219 34.1071C13.2547 34.1717 12.7105 34.5151 12.6693 34.6928C12.6258 34.8818 13.0333 34.4035 13.06 34.4942C12.8231 34.8557 12.4598 35.1014 12.1872 35.3956C12.1825 35.4008 12.2715 35.402 12.2156 35.4724C12.1181 35.5948 12.024 35.56 11.9606 35.604C11.8924 35.6516 11.7 35.8676 11.6491 35.8719C11.6425 35.8723 11.6183 35.767 11.6227 35.7588C11.6838 35.6426 11.7995 35.693 11.8085 35.6858C11.8418 35.6581 11.839 35.5963 11.8683 35.5701C11.9166 35.527 11.9714 35.5307 12.0336 35.4722C12.0767 35.432 11.9795 35.4166 12.0218 35.3785C12.0375 35.3648 12.3256 35.3321 12.2062 35.1864C12.1685 35.1405 10.8317 36.4023 10.7373 36.5666C10.8634 36.4696 10.9894 36.3726 11.1155 36.2756C10.853 36.4663 10.6918 36.8457 10.5144 36.7107C9.67338 37.5468 8.83234 38.383 7.99129 39.2192C7.82994 39.3576 7.80926 39.1752 7.5956 39.4534C7.69088 39.4206 7.78617 39.3878 7.88145 39.355C7.73403 39.4606 7.1371 39.9836 7.06867 40.0957C7.05984 40.1103 7.13586 40.2166 7.00572 40.3658C6.8902 40.4982 6.80152 40.451 6.72281 40.5053C6.65692 40.551 6.61324 40.6319 6.59312 40.6449C6.57754 40.6548 6.53039 40.6187 6.49291 40.6424C6.37504 40.7177 6.57093 40.7546 6.34008 40.7183C6.35787 40.6897 6.37566 40.661 6.39345 40.6324C6.25891 40.7308 6.04013 40.8311 6.17868 40.628C6.20248 40.593 6.21832 40.6585 6.23994 40.6362C7.08148 39.7584 6.32407 40.376 6.0899 40.7429C5.95299 40.7622 5.56162 41.2372 5.53547 41.2402C5.49841 41.2436 5.52336 41.1213 5.38555 41.1791C5.3565 41.1912 4.81772 41.8112 4.94354 41.5214C4.9695 41.4616 5.26148 41.1972 5.32531 41.127C5.04138 41.1616 4.86 41.715 4.81425 41.7524C4.62868 41.9027 5.02126 41.318 4.63331 41.6858C4.33503 41.9687 4.68994 41.7762 4.61615 41.9249C4.57466 42.0084 4.15573 42.2492 4.28667 42.3593C4.18828 42.4862 4.18883 42.3563 4.17043 42.3658C4.15288 42.3756 3.97036 42.6359 3.8735 42.6837C3.86168 42.6894 3.82535 42.5996 3.81125 42.6037C3.78501 42.6128 3.58641 42.8417 3.5833 42.8557C3.58163 42.8649 3.68758 42.8675 3.68035 42.9018C3.67176 42.9417 3.45537 43.1374 3.46005 43.1643C3.46823 43.204 3.7034 42.9313 3.72372 43.0348C3.59237 43.1381 3.44535 43.3718 3.41901 43.4989C3.42342 43.4657 3.53354 43.3487 3.57752 43.3138C3.65021 43.4213 3.40811 43.667 3.41841 43.5123C3.40476 43.6037 3.46102 43.5871 3.46805 43.653C3.46957 43.6699 3.39711 43.748 3.39853 43.7781C3.39981 43.783 3.51089 43.7379 3.51401 43.7717C3.51959 43.8328 3.28659 44.0566 3.25937 44.0669C3.18261 44.0959 3.3364 43.8782 3.31334 43.825C3.30962 43.817 3.07803 43.9039 3.06902 43.8998C2.98859 43.8397 3.21396 43.7114 3.12987 43.6692C3.07328 43.7001 3.0167 43.731 2.96011 43.7618C3.06109 43.5283 3.40157 43.2462 3.40681 43.0929C3.18273 43.3666 2.9226 43.628 2.75663 43.465C2.68668 43.3964 2.75174 43.2475 2.7298 43.2343C2.65036 43.1881 2.57227 43.4068 2.56349 43.4091C2.55512 43.4099 2.54929 43.4083 2.5456 43.4047C2.5456 43.4047 2.5456 43.4047 2.5456 43.4047C2.50826 43.3682 2.69144 43.1267 2.6849 43.0992C2.67228 43.0516 2.45408 43.0257 2.42664 42.9987C2.42436 42.9899 2.54446 42.8078 2.44584 42.8126C2.34615 42.8175 2.21412 42.9507 2.20448 42.9505C2.15039 42.9477 2.35292 42.6871 2.34257 42.6633C2.3375 42.6511 2.16113 42.7252 2.14222 42.7139C2.12375 42.702 2.18366 42.5734 2.17191 42.4883C2.16329 42.4249 2.05563 42.4799 2.06404 42.4599C2.07034 42.446 2.28738 42.2247 2.29168 42.2076C2.29814 42.1822 2.20431 42.1921 2.20091 42.174C2.19586 42.1482 2.28132 42.0917 2.25626 42.0855C2.23753 42.0809 1.81789 42.2135 1.77992 42.173C1.71527 42.1037 2.15807 41.9617 1.62374 41.9745C1.62012 41.9747 1.57413 42.0599 1.57067 42.0601C1.48138 42.0532 1.61405 41.7659 1.37253 42.0399C1.76099 41.4708 1.32966 41.8801 1.28571 41.6969C1.26894 41.6264 1.43456 41.4205 1.42884 41.4132C1.35536 41.3772 1.33998 41.4793 1.2928 41.4731C1.26661 41.4694 1.37217 41.2436 1.29699 41.2442C1.25818 41.2446 1.09071 41.4303 1.07967 41.4339C0.974414 41.4694 1.02009 41.3445 0.979202 41.335C0.951882 41.3285 0.845229 41.4351 0.839384 41.4349C0.828493 41.4331 0.901782 41.2186 0.907072 41.1642C0.910866 41.1226 0.796376 41.1809 0.803955 41.1567C0.850008 41.0112 1.17778 40.9259 0.807101 40.9546C0.78442 40.9563 0.714964 41.0362 0.710646 41.0364C0.615268 41.0346 0.746858 40.8911 0.730435 40.8264C0.701965 40.7152 0.545794 40.9535 0.658851 40.7389C0.491092 40.819 0.425108 40.8905 0.29532 41.0491C0.654423 40.6096 0.612038 40.2895 0.17829 40.7432C0.320555 40.603 0.202524 40.5188 0.242315 40.4744C0.267179 40.447 0.571327 40.3392 0.249825 40.211C0.209607 40.195 0.12312 40.3563 0.103079 40.2598C0.412755 39.9723 0.0721063 40.2171 0.064073 40.2099C-0.0668919 40.0745 0.763716 39.444 0.872096 39.3021C0.997872 39.1375 1.01928 38.9031 1.05036 38.871C1.15301 38.7657 1.12171 38.9057 1.1645 38.9015C1.20743 38.8968 1.39615 38.4966 1.41641 38.4872C1.49576 38.4515 1.50225 38.5727 1.51136 38.5698C1.62056 38.5362 1.96273 38.0854 2.08739 37.9873C2.04254 37.9504 1.81879 38.1731 1.88985 37.9671C1.97251 37.7271 2.16442 37.8959 2.17666 37.8995C2.90928 37.1451 3.6419 36.3907 4.37453 35.6363C4.26815 35.5508 3.86136 36.1144 3.83764 36.1132C3.69773 36.105 4.51017 35.275 4.64399 35.2065C4.5474 35.2635 4.45082 35.3205 4.35424 35.3774C4.37152 35.1361 4.80236 34.985 4.93969 34.7455C4.984 34.6681 4.82505 34.7447 4.82451 34.7394C4.84888 34.6276 4.99107 34.5487 4.96804 34.689C5.07766 34.4649 5.1151 34.5498 5.24669 34.4241C5.25343 34.4176 5.15381 34.4295 5.23557 34.3083C5.27391 34.2515 5.52481 33.9941 5.51898 33.9211C5.51619 33.8907 5.21393 33.8506 5.34875 34.0136C5.00231 34.2219 5.33011 34.17 5.22056 34.2753C5.20351 34.2912 5.15691 34.1709 4.92933 34.4833C4.82868 34.2833 5.2496 34.0785 5.28398 34.0066C5.35498 33.8583 4.82861 34.2413 4.86452 34.4408C4.78468 34.2861 4.8168 34.4578 4.71203 34.5555C4.59742 34.6624 4.60987 34.5792 4.55051 34.6397C4.38782 34.8047 4.53837 34.8174 4.32973 34.8807C4.69273 34.9746 4.13211 35.1447 3.96666 35.1922C4.12476 35.0065 4.28287 34.8208 4.44098 34.6351C4.41903 34.6331 4.39708 34.6311 4.37514 34.6292C4.42163 34.585 4.46812 34.5408 4.51461 34.4966C4.51917 34.5154 4.52371 34.5342 4.52827 34.553C4.68285 34.242 4.82483 34.2679 4.84461 34.2495C5.09681 34.0109 5.37592 33.7233 5.62115 33.4725C5.65794 33.4349 5.55647 33.3864 5.88402 33.1701C5.98847 33.101 5.96712 33.2416 6.05507 33.1336C6.01504 32.8522 6.1413 32.98 6.17753 32.9432C6.28086 32.8373 6.30412 32.7336 6.31325 32.7234C6.43472 32.5864 6.62842 32.4012 6.76276 32.2516C6.76478 32.2483 6.64227 32.2748 6.74804 32.1957C6.78528 32.168 7.28367 32.0801 7.46567 31.7557C7.38614 31.8086 7.30661 31.8616 7.22708 31.9146C7.32376 31.8554 7.80817 31.2523 7.62011 31.3318C7.50494 31.3807 7.44444 31.7153 7.29183 31.6096C7.50997 31.4644 8.43951 30.3943 8.54689 30.3452C8.56188 30.3385 8.53892 30.4471 8.55906 30.4373C8.57458 30.4297 8.79087 30.1879 8.83725 30.173C8.86484 30.1641 8.79087 30.2921 8.81432 30.2987C8.83235 30.302 9.13325 30.03 9.0961 29.9615C9.04806 30.0535 8.83428 30.2353 8.89169 30.0866C8.89927 30.0677 9.00185 30.0313 9.01075 30.008C9.09383 29.7922 8.66614 30.2619 8.59698 30.3318C8.8076 29.9801 9.31838 29.6166 9.59682 29.2427C9.77157 29.1523 9.47136 29.507 9.65564 29.3916C10.0379 29.1522 9.67574 29.2483 9.67961 29.2331C9.71088 29.1115 10.2096 29.0801 10.0272 28.9018C10.1657 28.8149 10.1528 28.8742 10.2855 28.6904C10.2522 28.6992 10.219 28.708 10.1857 28.7167C10.2539 28.4354 10.8885 28.3185 10.8813 28.3666C10.8616 28.4957 10.5851 28.6093 10.5707 28.628C10.5495 28.6558 10.6678 28.9051 10.2371 29.0153C10.2528 29.2478 10.7411 28.6664 10.5852 28.9956C10.7338 28.8155 11.4887 28.2147 11.5304 28.0629C11.5347 28.0442 11.3575 27.9783 11.5856 27.8705C11.694 27.8194 11.5064 28.0145 11.5705 28.0053C11.7674 27.9766 13.2133 26.3838 13.4939 26.087C13.5123 26.0679 13.5439 26.1123 13.5617 26.0933C13.6165 26.035 13.7629 25.7704 13.8806 25.6852C13.6023 25.8282 13.9991 25.4103 14.1093 25.3131C14.2766 25.1654 14.3346 25.2412 14.416 25.1865C14.7301 24.9754 14.9705 24.408 15.3214 24.3484C15.1615 24.2144 15.742 24.0633 15.9065 23.8974C16.0353 23.7675 16.1222 23.4813 15.8897 23.5995C16.1171 23.3801 16.3215 23.1151 16.5193 22.8942C16.552 22.8576 16.549 22.9488 16.6033 22.8851C16.608 22.8791 16.5721 22.8295 16.6177 22.7737C16.9938 22.313 16.8842 22.6088 16.9885 22.5558C17.0469 22.5261 17.0864 22.5007 17.1123 22.4791C16.8797 22.7344 16.6185 23.036 16.5454 23.1134C16.7041 23.1414 17.0615 22.5478 17.225 22.4315C17.2307 22.4275 17.2666 22.4958 17.2718 22.4912C17.2719 22.4911 17.272 22.491 17.2721 22.4909C17.3278 22.4418 17.6377 22.0855 17.5073 22.0938C17.4723 22.0962 17.3208 22.2515 17.1468 22.4413C17.1837 22.3799 17.0886 22.3598 17.0946 22.3485C17.1696 22.2135 17.482 22.0081 17.5802 21.923C17.6026 21.9034 17.5634 21.8682 17.5667 21.8646C17.6576 21.7886 17.7315 21.9283 17.7048 21.7335C17.988 21.7116 17.4456 22.0391 17.5629 22.0931C17.6531 22.1348 18.5681 21.1249 18.4596 21.0247C18.4742 21.0323 18.5013 21.0326 18.5441 21.0207C18.639 20.9943 18.8926 20.7122 18.9189 20.6463C18.9227 20.6347 18.8171 20.5378 18.8257 20.5271C18.8473 20.5003 19.2512 20.2471 19.3114 20.0641C19.2318 20.1169 19.1522 20.1698 19.0725 20.2227C19.4657 19.8179 19.3743 19.8505 19.2123 19.9552C19.2055 19.9616 19.1952 19.9644 19.1885 19.9704C19.0641 20.0526 18.9118 20.165 18.9017 20.1592C18.8784 20.1455 19.1097 19.881 19.2873 19.7259V23.6183C19.19 23.5012 19.1377 23.4075 19.2255 23.4228C19.2391 23.4253 19.2979 23.4954 19.3526 23.5547V19.7895C19.2782 19.8616 19.2215 19.9263 19.3457 19.8753C19.3553 19.8714 19.3736 19.8547 19.3959 19.8318L19.3959 23.5124C19.3283 23.4431 19.2045 23.3354 19.2023 23.3219C19.1908 23.253 19.35 23.3485 19.4914 23.4193V19.9249C19.4412 20.0316 19.4044 20.128 19.4572 20.1343C19.4707 20.0727 19.5008 20.0199 19.5387 19.9712V23.3731C19.4517 23.3019 19.3785 23.2054 19.2894 23.1364C19.2266 23.0878 19.1617 23.1241 19.1539 23.1181C19.0392 23.0274 19.15 23.033 19.1148 22.9997C19.0957 22.982 18.7813 22.8893 18.9772 22.7736C18.2031 22.2129 18.679 22.7006 19.0915 23.1055C18.9063 23.031 18.6842 22.7476 18.5587 22.6456C18.5136 22.6091 18.4846 22.6851 18.4061 22.6257C18.2444 22.5034 17.637 21.7595 17.4773 21.5672C17.6028 21.6585 17.629 21.5704 17.5426 21.4897C17.456 21.409 17.4486 21.555 17.4243 21.5465C17.3985 21.5372 17.0476 21.105 16.9733 21.0487C17.2925 21.3203 17.2841 21.197 17.0427 20.9376C17.095 20.9581 17.1473 20.9787 17.1995 20.9992C17.0314 20.8733 16.814 20.4755 16.7042 20.415C16.6868 20.4056 16.6859 20.501 16.6761 20.4958C16.5821 20.4404 16.3812 20.1361 16.3531 20.1402C16.3296 20.1435 16.3958 20.2922 16.3363 20.2711C16.3239 20.2667 16.2862 20.0977 16.1689 20.0095C16.1254 19.9767 16.1025 20.0444 16.0903 20.0373C15.9895 19.9778 16.1129 19.9506 15.9563 19.8149C15.8415 19.7155 15.6878 19.708 15.5666 19.5341C15.9503 20.1189 15.5873 19.6668 15.3579 19.4896C15.3211 19.4612 15.2659 19.5702 15.1142 19.3341C15.6724 19.6068 15.0769 19.1376 14.9711 19.0259C14.9657 19.0194 15.0183 18.9641 14.9665 18.9092C14.962 18.9047 14.9315 18.9472 14.8797 18.8998C14.3889 18.45 14.7274 18.7136 14.6755 18.5877C14.6535 18.5341 14.3756 18.3536 14.3135 18.2925C14.2994 18.2783 14.3442 18.2475 14.2886 18.1935C14.1901 18.0981 14.0636 18.0501 13.9972 17.9885C13.9896 17.9811 14.0498 17.9218 13.9104 17.8182C13.8713 17.789 13.812 17.7712 13.8425 17.8372C13.9438 18.0555 14.3436 18.2673 14.4657 18.5067C14.5772 18.7249 14.0569 18.2015 14.0298 18.1743C14.0198 18.1644 14.1505 18.2382 14.0542 18.1276C13.9718 18.0333 13.7078 17.9716 13.6004 17.8161C13.5921 17.8042 13.5767 17.6113 13.5867 17.6111C13.5948 17.6119 13.7737 17.7568 13.7761 17.7081C13.7763 17.7024 13.6742 17.5989 13.6801 17.5667C13.6871 17.5275 13.8713 17.2602 13.8553 17.2324C13.8138 17.1617 13.798 17.2495 13.7657 17.2091C13.6962 17.1226 13.496 16.7826 13.4083 16.8507C13.4478 16.9006 13.4873 16.9505 13.5268 17.0004C13.2728 16.7562 13.344 16.8965 13.2943 16.8752C13.2408 16.8524 13.3208 16.7955 13.2444 16.7041C13.2278 16.6843 12.8664 16.3429 12.8436 16.3778C13.0818 16.5291 12.9249 16.54 12.9322 16.5505C12.9602 16.5904 13.0513 16.5875 13.0954 16.6346C13.405 16.967 13.0092 16.7133 13.0645 16.8091C13.0837 16.842 13.1761 16.8545 13.185 16.8678C13.2137 16.9108 13.1604 16.9639 13.1885 16.984C13.2539 17.0308 13.2655 16.8903 13.2738 16.8909C13.3709 16.8951 13.5053 17.1515 13.3019 17.1087C13.3444 17.2121 13.4536 17.1225 13.4707 17.2206C13.5051 17.4153 13.3546 17.2201 13.2951 17.1856C13.0812 17.0619 13.0705 16.9737 12.8221 16.7455C12.7328 16.6633 12.5835 16.6081 12.5416 16.5705C12.5151 16.5468 12.4516 16.1412 12.1784 16.394C12.1133 16.2757 12.1463 15.9584 12.0446 15.8702C11.9533 15.7913 11.8858 15.9106 11.8743 15.9061C11.8565 15.8994 11.7623 15.788 11.7146 15.7657C11.6586 15.7398 11.6428 15.7955 11.5642 15.7443C11.3688 15.6168 11.4692 15.5272 11.4591 15.5044C11.3416 15.2394 11.2878 15.458 11.2347 15.4256C11.1855 15.3953 10.6889 14.7809 10.5387 14.6962C10.605 14.7256 10.6713 14.755 10.7376 14.7844C10.7134 14.6396 10.5263 14.6436 10.6323 14.537C10.4415 14.689 10.3838 14.3976 10.3272 14.3484C10.3047 14.3292 10.2768 14.3597 10.2497 14.3345C10.1439 14.2365 9.94072 13.9811 9.87116 13.9398C9.57059 13.761 10.0664 14.4843 10.1074 14.5393C10.0143 14.44 9.43745 13.9266 9.6012 14.2615C9.62654 14.3132 9.772 14.3068 9.79651 14.3258C9.96182 14.4552 9.77789 14.4061 9.78266 14.4242C9.79133 14.4545 9.9543 14.4868 9.97151 14.5205C9.97736 14.5316 9.86007 14.5376 9.99731 14.6809C9.86801 14.6707 9.52835 14.2229 9.46289 14.1845C9.43956 14.1709 9.42299 14.4153 9.21659 13.9498C9.20833 13.9656 9.20006 13.9814 9.1918 13.9972C9.0012 13.8119 8.81061 13.6265 8.62002 13.4411C8.66813 13.4345 8.82848 13.4866 8.68532 13.3637C8.60287 13.293 8.59652 13.411 8.58782 13.4057C8.50288 13.3529 7.32344 12.1025 7.08391 11.8709C7.00254 11.792 6.73197 11.6148 6.71422 11.5984C6.60867 11.5003 6.28516 11.1035 6.20706 11.0376C6.15818 10.9966 6.1483 11.0906 6.11112 11.0476C6.07663 11.0075 6.16509 10.9976 6.15625 10.9843C6.08387 10.8736 5.32957 10.2325 5.21356 10.0187C5.29922 10.1349 5.89822 10.5479 5.92366 10.503C5.92636 10.496 5.84346 10.3345 5.79981 10.3271C5.80207 10.2423 5.52771 10.2263 5.47665 10.1219C5.47089 10.1101 5.5796 10.0727 5.45548 9.91848C5.41268 9.86539 5.23058 9.79471 5.17062 9.60325C4.95853 9.44832 4.10404 8.37951 3.95889 8.39059C3.95274 8.39273 4.05913 8.55683 3.93586 8.49609C3.772 8.41534 4.02684 8.3828 3.89933 8.22676C3.88014 8.20323 3.47528 7.81798 3.45342 7.81376C3.2529 7.77308 3.56028 8.15498 3.54593 8.15943C3.50992 8.17079 3.21217 7.89479 3.20635 7.87744C3.20131 7.86044 3.54143 7.99061 3.22253 7.74657C3.24127 7.79189 3.26001 7.8372 3.27875 7.88251C3.12283 7.77354 3.18594 7.68709 3.15893 7.65018C3.07526 7.53518 2.85419 7.53814 2.83843 7.23846C2.83441 7.15909 2.9453 7.18919 2.94573 7.17835C2.94633 7.07769 2.74709 7.1444 2.77288 6.96875C2.77476 6.9556 3.01032 7.07599 2.70452 6.76224C2.71589 6.79327 2.72726 6.8243 2.73864 6.85533C2.67387 6.8322 2.35125 6.52722 2.31468 6.47952C2.20788 6.34015 2.38357 6.38115 2.25289 6.26383C2.2361 6.43723 1.85156 6.06795 1.95499 6.00987C1.8 6.0571 1.56337 5.65558 1.41722 5.50088C1.32493 5.40335 1.08873 5.25118 1.0642 5.21552C1.03436 5.17203 1.11565 5.11478 1.06577 5.03235C1.05155 5.00884 0.804965 4.85916 0.706482 4.61268C0.687313 4.56499 0.736821 4.37727 0.828288 4.41142C0.984838 4.4699 1.08852 4.76829 1.15641 4.69696C1.22876 4.62039 0.914954 4.38838 0.852384 4.30458C0.5636 3.91758 0.836717 4.03729 0.852398 4.00479C0.889026 3.92446 0.704555 3.73903 0.702231 3.72605C0.694177 3.67072 0.870232 3.75789 0.908145 3.72481C0.957325 3.68155 0.865776 3.41866 0.921581 3.44428C1.00128 3.48114 1.09265 3.71569 1.10627 3.72292C1.28522 3.81547 1.21036 3.52233 1.21306 3.41878C1.21412 3.38715 1.30192 3.42339 1.29404 3.40572C1.17326 3.13636 1.10122 3.51222 0.987502 3.36562C0.886031 3.23484 1.10489 3.31696 1.10442 3.30864C1.10306 3.29863 0.969609 3.15409 0.973264 3.10752C0.975265 3.08437 1.47045 3.31532 1.51754 3.23956C1.39 3.13616 1.26246 3.03276 1.13492 2.92936C1.20682 2.84134 1.31112 3.06729 1.3364 3.07652C1.38723 3.09517 1.33303 2.95778 1.36266 2.93703C1.38111 2.92341 1.55074 2.98124 1.4738 2.85455C1.44741 2.81097 1.318 2.79171 1.24967 2.60585C1.7629 2.98396 1.50392 2.62761 1.51961 2.5864C1.53556 2.54547 1.81266 2.69468 1.54619 2.44539C1.69246 2.2806 1.6014 2.4025 1.70138 2.44967C1.82398 2.50733 1.67098 2.24688 1.95554 2.61718C2.01077 2.52644 1.74525 2.26471 1.73734 2.24485C1.73077 2.22746 1.82486 2.25142 1.8165 2.2183C1.71478 1.82933 1.81741 2.06453 1.83761 1.90343C1.83944 1.88906 1.64249 1.61978 1.83132 1.78685C2.17528 2.09127 2.20461 2.33013 2.48149 2.16755C2.3418 1.83045 1.91107 1.6771 1.8367 1.60576C1.72309 1.49634 1.88265 1.56884 1.88183 1.54249C1.88124 1.53364 1.78261 1.44007 1.78495 1.43523C1.88748 1.19986 2.21013 1.86539 2.394 1.99465C2.37813 1.9274 2.36227 1.86015 2.3464 1.79291C2.40352 1.84941 2.46064 1.90592 2.51776 1.96243C2.30173 1.6385 2.52774 1.93385 2.73218 1.86772C2.7781 1.85285 2.54942 1.72468 2.83577 1.84603C2.7079 1.67523 2.78318 1.69606 2.61057 1.59684C2.66925 1.5465 3.03252 1.7942 3.17957 1.88823C2.82228 1.39782 2.85883 1.8406 2.60348 1.36443C2.46786 1.36224 2.65422 1.52662 2.62882 1.52317C2.53761 1.51088 2.48337 1.32635 2.19797 1.31832C2.1513 1.31721 2.17809 1.48845 2.03557 1.33542C2.01992 1.31839 1.98831 1.16312 1.99406 1.1601C2.05449 1.12581 2.12852 1.23775 2.1524 1.22205C2.17497 1.20717 2.06084 1.11305 2.06575 1.10755C2.12286 1.04552 2.17447 1.17291 2.18044 1.14128C2.1936 1.07268 1.95387 0.56752 2.398 1.09874C1.92943 0.754756 2.28019 1.11111 2.46231 1.24542C2.50864 1.27978 2.55471 1.25499 2.62387 1.30089C2.71294 1.35981 2.78097 1.46412 2.8253 1.49634C2.87314 1.53081 2.72774 1.21155 3.0357 1.57801C2.95068 1.32154 2.56077 1.10241 2.45354 0.873612C2.23739 0.411821 2.83384 0.971603 2.90493 1.02118C2.92392 1.03434 2.91943 0.93249 2.93297 0.940406C2.9548 0.953646 3.25621 1.30754 3.32837 1.30103C3.40041 1.29446 3.20789 1.18124 3.2398 1.1301C3.26124 1.09562 3.70201 1.44726 3.50979 1.21165C3.37723 1.04933 2.9951 0.884557 3.07175 0.719227C3.29623 0.929127 3.52071 1.13903 3.74519 1.34893C3.67423 1.1834 3.60327 1.01787 3.53232 0.852348C3.78765 1.08464 3.94331 1.34895 4.23825 1.51842C3.83771 0.810513 4.53518 1.58546 4.56127 1.57602C4.57476 1.56821 4.47924 1.22895 4.46653 1.17177C4.70448 1.32282 5.30918 1.89726 5.11763 1.4029C5.1458 1.49907 5.3785 1.57148 5.38279 1.56334C5.4296 1.47966 5.06048 1.18669 5.17316 1.18327C5.30384 1.17922 5.29672 1.35913 5.39911 1.44913C5.92514 1.91037 6.13507 1.43822 6.56909 1.99186C6.57161 1.96996 6.57413 1.94807 6.57664 1.92618C7.08803 2.4893 7.59941 3.05242 8.1108 3.61555C8.42341 3.72608 9.04006 4.23033 9.29995 4.51994C9.35235 4.57818 9.5657 4.90701 9.57629 4.93719C9.5953 4.99368 9.38201 4.78918 9.44051 4.91855C9.45307 4.94566 9.88434 5.434 9.91055 5.34343C9.86643 5.2846 9.67757 5.15004 9.66532 5.10981C9.58083 4.82571 10.9029 6.33857 11.012 6.37089C11.0001 6.32049 10.9881 6.27009 10.9761 6.21969C11.0552 6.31945 11.1342 6.41921 11.2132 6.51897ZM2.43684 6.9547C2.32489 6.95778 2.23616 6.77833 2.14106 6.71393C2.00936 6.62525 1.59804 6.65738 1.9048 6.51704C2.08215 6.66293 2.25949 6.80881 2.43684 6.9547ZM4.67878 9.42829C4.60353 9.28786 4.81339 9.24898 4.84823 9.39028C4.85195 9.40609 4.78082 9.61807 4.67878 9.42829ZM3.61842 8.22089C3.6246 8.22386 3.71362 8.32182 3.71485 8.32707C3.74672 8.46171 3.47864 8.16609 3.61842 8.22089ZM9.09694 13.706C8.97368 13.5907 8.94356 13.7907 9.06428 13.8194C9.07191 13.8212 9.10496 13.7137 9.09694 13.706ZM9.01623 13.6172C9.02811 13.4226 8.63442 13.4381 8.80197 13.5677C8.8183 13.5802 9.01543 13.6264 9.01623 13.6172ZM4.34823 8.98852C4.39987 8.96221 4.49101 9.09388 4.52862 9.15139C4.49117 9.18536 4.39883 9.03153 4.34823 8.98852ZM7.15481 11.8432C7.19063 11.8177 6.80567 11.4265 6.73853 11.4398C6.81642 11.4848 7.12242 11.866 7.15481 11.8432ZM8.18137 12.808C8.17704 12.7928 8.03646 12.665 8.01285 12.6958C8.04143 12.7972 8.20074 12.8766 8.18137 12.808ZM10.133 14.812C10.1471 14.8127 10.2228 14.5404 10.3426 14.8935C10.3603 14.9453 10.1914 14.8636 10.1974 14.8823C10.2108 14.9206 10.2254 14.9469 10.2407 14.9646C10.1167 14.8666 9.99626 14.7568 9.99588 14.7351C9.99434 14.6333 10.1269 14.8116 10.133 14.812ZM11.2888 15.7361C11.3399 15.7314 11.4686 15.8938 11.4896 15.9389C11.493 15.9468 11.3935 15.9948 11.464 16.0558C11.5206 16.1046 11.5197 15.95 11.6088 16.0659C11.6989 16.183 11.5073 16.096 11.5123 16.109C11.5192 16.1263 11.7122 16.2551 11.6626 16.2936C11.6259 16.3221 11.4784 16.1263 11.4294 16.0901C11.3666 16.0438 11.3767 16.1644 11.2987 16.0607C11.2496 15.9956 11.3778 15.9332 11.3708 15.9162C11.3647 15.9021 11.1116 15.7542 11.2888 15.7367C11.2888 15.7365 11.2888 15.7363 11.2888 15.7361ZM10.2745 14.9908C10.263 14.9855 10.2516 14.9773 10.2407 14.9646C10.2519 14.9735 10.2633 14.9822 10.2745 14.9908ZM2.78819 7.22979C2.81387 7.31589 2.61063 7.18423 2.58732 7.08202C2.61781 7.05011 2.78399 7.21618 2.78819 7.22979ZM10.4549 15.0178C10.5932 15.2081 10.4402 15.1181 10.2745 14.9908C10.3386 15.02 10.4084 14.954 10.4549 15.0178ZM5.79981 10.3271C5.79944 10.3412 5.79252 10.3566 5.77456 10.3752C5.77678 10.337 5.78604 10.3248 5.79981 10.3271ZM6.14596 10.748C6.33234 10.8262 6.06596 10.5577 6.02728 10.5988C6.01284 10.6145 6.13852 10.7448 6.14596 10.748ZM9.2425 13.8663C9.23613 13.8487 9.59112 13.8719 9.19515 13.7217C9.31822 13.888 9.14866 13.7513 9.13598 13.7681C9.09896 13.8159 9.38061 14.0222 9.41533 14.0948C9.53369 14.0627 9.26358 13.9242 9.2428 13.8666C9.2427 13.8665 9.2426 13.8664 9.2425 13.8663ZM13.0958 17.6709C13.0183 17.6813 12.9294 17.5613 12.8623 17.4872C12.9398 17.4768 13.0287 17.5968 13.0958 17.6709ZM6.82216 32.091C7.25853 31.5606 7.50342 31.6757 6.99382 32.0533C6.98374 32.0606 6.8117 32.1388 6.82216 32.091ZM10.9711 27.9331C11.0959 27.9648 10.9597 28.13 10.8289 28.1982C10.7993 28.2137 10.6367 28.2188 10.7144 28.1076C10.8081 28.2049 10.9896 28.0927 10.9711 27.9331ZM10.5978 15.0621C10.6984 15.0588 10.8062 15.245 10.875 15.3315C10.7843 15.3262 10.6491 15.148 10.5978 15.0621ZM8.48802 30.5744C8.54443 30.5286 8.50906 30.4261 8.49459 30.4294C8.42918 30.4434 8.39112 30.5947 8.48802 30.5744ZM10.1358 14.5721C10.1609 14.5342 10.3845 14.7022 10.3194 14.7926C10.2838 14.7448 10.1207 14.5964 10.1358 14.5721ZM12.9881 17.5128C12.9743 17.4663 13.1584 17.5971 13.1893 17.6609C13.1517 17.69 12.9973 17.5432 12.9881 17.5128ZM9.27548 29.7201C9.32662 29.6798 9.44115 29.566 9.42558 29.5259C9.40602 29.4758 9.25272 29.6568 9.27548 29.7201ZM0.94276 38.3823C0.924468 38.3758 1.00819 38.1083 1.10876 38.0512C1.30007 37.9431 0.957831 38.3847 0.94276 38.3823ZM8.04696 31.098C7.83872 31.1795 8.06057 31.0799 7.98486 31.0185C7.88663 31.1142 7.64508 31.3549 7.87711 31.2538C7.92222 31.234 7.99784 31.1394 8.04696 31.098ZM8.20143 30.9862C8.19417 30.9486 8.22575 30.7743 8.14219 30.8701C8.10367 30.9145 8.11647 31.0591 8.20143 30.9862ZM1.99326 37.2437C2.18228 37.1731 1.56478 37.74 1.53722 37.7467C1.52265 37.7502 1.51147 37.7509 1.50361 37.7499C1.50164 37.7909 1.39475 37.9075 1.33266 37.8725C1.36984 37.8426 1.45587 37.7457 1.47183 37.7403C1.47868 37.7379 1.48424 37.7366 1.48878 37.7364C1.48493 37.6547 1.95716 37.2574 1.99326 37.2437ZM3.02505 36.3128C2.9699 36.5509 2.78979 36.4268 2.79739 36.4091C2.89308 36.1847 2.90328 36.4019 2.91348 36.4021C2.93344 36.3994 2.99347 36.2322 3.02459 36.3133C3.02474 36.3131 3.0249 36.313 3.02505 36.3128ZM2.21717 37.065C2.21318 37.0731 2.08592 37.194 2.07845 37.1968C1.92621 37.2491 2.28608 36.9068 2.21717 37.065ZM12.1698 16.4231C12.2421 16.528 12.0993 16.4952 12.0615 16.4155C12.0587 16.4087 12.106 16.3306 12.1698 16.4231ZM8.25618 30.8995C8.28724 30.8891 8.84779 30.3955 8.73081 30.3439C8.69676 30.399 8.06145 30.9619 8.25618 30.8995ZM12.1639 26.9357C12.0715 27.0291 12.0906 26.8477 12.1697 26.827C12.199 26.8193 12.1871 26.9122 12.1639 26.9357ZM9.94906 14.2338C9.80941 14.1795 9.97812 14.0543 10.0096 14.1888C10.0108 14.194 9.95452 14.2359 9.94906 14.2338ZM11.3846 27.6414C11.652 27.2694 11.8334 27.5963 11.3356 27.9334C11.3371 27.909 11.3385 27.8847 11.34 27.8604C10.8269 28.3094 11.2894 27.876 11.3913 27.7429C11.43 27.6923 11.3502 27.6885 11.384 27.6414C11.3842 27.6414 11.3844 27.6414 11.3846 27.6414ZM12.6511 26.4461C13.1376 26.3114 12.4376 26.7919 12.2945 26.986C12.3811 26.7469 12.603 26.5422 12.2397 26.7607C12.6435 26.317 12.5417 26.5664 12.5644 26.5551C12.591 26.5414 12.6303 26.4518 12.6511 26.4461ZM11.8488 27.2709C11.8365 27.2942 11.6668 27.394 11.625 27.4489C11.6297 27.3198 11.9296 27.1159 11.8488 27.2709ZM3.99817 35.2309C4.03585 35.2897 4.04448 35.3526 3.92156 35.4422C3.92944 35.3852 3.97527 35.2961 3.99817 35.2309ZM2.59241 6.60144C2.5238 6.52412 2.39856 6.35905 2.39139 6.45413C2.39185 6.46333 2.56346 6.62925 2.59241 6.60144ZM9.80625 29.3896C9.82758 29.3797 10.2282 28.9771 10.0375 29.0651C9.97996 29.0916 9.62598 29.4682 9.80625 29.3896ZM7.7463 31.4888C7.78 31.4553 7.90567 31.3081 7.89701 31.294C7.86632 31.2458 7.7227 31.4368 7.7463 31.4888ZM2.27849 6.17994C2.27405 6.16528 2.04485 5.94825 2.04543 5.99612C2.04671 6.08682 2.29364 6.23028 2.27849 6.17994ZM12.6029 16.6389C12.6231 16.656 12.5946 16.7326 12.6003 16.7397C12.6146 16.7557 12.9719 17.0813 12.7753 17.0156C12.7424 17.0047 12.2836 16.4822 12.2272 16.411C12.2754 16.3152 12.4135 16.5949 12.4714 16.6393C12.4817 16.647 12.5481 16.5936 12.6024 16.639C12.6026 16.639 12.6027 16.6389 12.6029 16.6389ZM3.50404 35.8402C3.53534 35.9005 3.16969 36.3364 3.11834 36.2771C3.24691 36.1315 3.37548 35.9858 3.50404 35.8402ZM3.71295 35.6414C3.83015 35.5866 3.64296 35.8 3.57019 35.8458C3.53851 35.8161 3.69586 35.6493 3.71295 35.6414ZM8.67028 30.8868C8.6988 30.835 8.509 30.8948 8.5233 30.8539C8.53269 30.828 8.64691 30.7614 8.65421 30.7118C8.65556 30.697 8.5015 30.7282 8.47798 30.7578C8.44435 30.7996 8.53034 30.8111 8.49 30.8532C8.35599 30.9927 8.20069 31.0808 8.07488 31.2114C8.06362 31.2233 8.18749 31.1667 8.08946 31.2662C8.07438 31.2816 7.9314 31.3233 7.82248 31.4505C7.72711 31.873 7.37852 31.9115 7.11003 32.3038C7.13765 32.306 7.42321 32.0953 7.43913 32.0821C7.73917 31.8279 8.23181 31.3288 8.51845 31.0357C8.59205 30.9606 8.52202 30.9636 8.5524 30.9299C8.57648 30.9034 8.61036 30.9959 8.67028 30.8868ZM2.66588 6.60639C2.69506 6.50917 2.53428 6.42483 2.46056 6.3427C2.43035 6.4264 2.60472 6.51552 2.66588 6.60639ZM5.54106 33.866C5.57722 33.8241 5.71601 33.7201 5.70677 33.6913C5.69453 33.6539 5.50604 33.8155 5.54106 33.866ZM14.4852 18.6043C14.4906 18.6064 14.5801 18.705 14.5816 18.7105C14.6136 18.8453 14.3455 18.5496 14.4852 18.6043ZM16.6942 20.893C16.7724 20.9575 16.8633 21.011 16.8354 21.0855C16.7985 21.0318 16.65 20.9196 16.6942 20.893ZM18.8849 20.2088C18.967 20.2597 18.7113 20.4343 18.6652 20.4694C18.6501 20.425 18.8256 20.1722 18.8849 20.2088ZM4.22536 35.4221C4.0918 35.551 4.22143 35.6227 4.09288 35.6619C4.07163 35.668 3.81528 35.5047 4.03749 35.4366C4.07747 35.4243 4.02781 35.5764 4.22536 35.4221ZM11.2665 27.9999C11.2782 28.0773 11.162 28.1699 11.0888 28.2378C11.0712 28.1894 11.2202 28.0538 11.2665 27.9999ZM1.93177 5.72237C1.93405 5.59857 1.60651 5.35641 1.63432 5.46827C1.63877 5.4837 1.89476 5.67967 1.93177 5.72237ZM11.131 15.2011C11.2961 15.2711 11.0722 15.0108 10.9482 14.9807C10.9856 15.0127 11.1199 15.1963 11.131 15.2011ZM19.0608 23.2423C19.0683 23.246 19.186 23.3762 19.1891 23.3842C19.2376 23.5377 18.9043 23.1695 19.0608 23.2423ZM16.0457 20.0643C16.1307 20.0697 16.3879 20.3993 16.412 20.5059C16.2897 20.5 15.9399 20.058 16.0457 20.0643ZM4.72945 34.8472C4.63914 34.944 4.53885 35.0217 4.43627 35.0915C4.41973 35.0396 4.69399 34.8322 4.72945 34.8472ZM19.2123 19.9552C19.2055 19.9616 19.1952 19.9644 19.1885 19.9704C19.1965 19.9651 19.2046 19.9602 19.2123 19.9552ZM6.82256 32.7501C6.91361 32.684 6.8345 32.639 6.82779 32.642C6.74909 32.6818 6.71953 32.8251 6.82256 32.7501ZM2.67097 6.42437C2.701 6.34135 2.52659 6.25085 2.46518 6.16082C2.44199 6.22694 2.60462 6.36831 2.67097 6.42437ZM13.0938 26.2254C13.2528 26.1858 12.9285 26.6616 12.8053 26.7083C12.7611 26.6775 13.0711 26.2318 13.0938 26.2254ZM10.8575 14.7502C10.8944 14.6987 10.6743 14.5808 10.6886 14.6375C10.6975 14.6735 10.8345 14.7819 10.8575 14.7502ZM12.5802 26.8871C12.5566 26.9385 12.4259 26.9845 12.4296 26.927C12.4345 26.8533 12.5859 26.8734 12.5802 26.8871ZM9.27813 30.3433C9.30121 30.3333 9.47421 30.0644 9.33837 30.1127C9.24407 30.1461 9.29852 30.2192 9.28397 30.2345C9.26729 30.2512 8.83726 30.5343 9.27813 30.3433ZM15.3504 23.9901C15.285 24.0915 15.1653 24.1743 15.0802 24.2641C15.0878 24.2011 15.2787 23.9904 15.3504 23.9901ZM11.5107 15.3957C11.5086 15.3576 10.9734 14.7873 11.2282 15.1594C11.2431 15.181 11.5169 15.5114 11.5107 15.3957ZM4.22536 35.4221C4.24221 35.4058 4.26319 35.3885 4.28947 35.3704C4.26601 35.391 4.2441 35.4074 4.22536 35.4221ZM5.70365 33.9203C5.70627 33.9825 5.86523 33.8369 5.8923 33.7746C5.86632 33.722 5.70322 33.9116 5.70365 33.9203ZM15.1189 24.315C15.0877 24.3841 14.9775 24.4573 14.9181 24.5226C14.8983 24.4825 15.0667 24.3071 15.1189 24.315ZM18.6478 20.7657C18.5311 20.8495 18.4177 20.9822 18.4527 21.0201C18.4449 21.0166 18.434 21.0155 18.4199 21.0177C18.4058 21.02 18.317 21.1452 18.2584 21.1801C17.9082 21.3894 19.278 20.0472 18.6062 20.9442C18.6201 20.8847 18.634 20.8252 18.6478 20.7657ZM15.74 19.5772C15.7288 19.4759 15.5154 19.3698 15.5385 19.4288C15.5548 19.4697 15.7509 19.6789 15.74 19.5772ZM17.9251 21.7637C17.9163 21.7387 17.7315 21.6122 17.7039 21.6312C17.7671 21.7459 17.9642 21.8783 17.9251 21.7637ZM15.3613 19.0839C15.3329 19.0412 15.2156 19.0658 15.2165 19.0731C15.2259 19.1356 15.3801 19.1838 15.3613 19.0839ZM4.68888 35.3373C4.76201 35.3038 4.87658 35.0815 4.86511 34.9976C4.88112 34.9997 4.91142 34.9928 4.95933 34.9726C4.95923 34.9727 4.95913 34.9728 4.95902 34.9729C5.02349 34.9455 6.39427 33.5827 5.39684 34.4207C5.36554 34.4469 5.44721 34.4491 5.32428 34.56C5.3161 34.5673 5.27726 34.5369 5.25203 34.5594C5.19414 34.6113 4.88356 34.8855 4.85378 34.9725C4.84679 34.9667 4.83686 34.9645 4.82322 34.9671C4.70155 34.9907 4.63225 35.3634 4.68888 35.3373ZM18.2356 22.0691C18.2177 22.0248 18.1077 21.9367 18.0666 21.9565C18.0999 22.021 18.2769 22.1721 18.2356 22.0691ZM11.6206 15.2545C11.5832 15.1653 11.3762 15.0483 11.3991 15.1223C11.4131 15.1678 11.664 15.3574 11.6206 15.2545ZM17.2404 21.0821C17.5644 21.4874 17.3294 21.1674 17.43 21.1798C17.3668 21.1472 17.3036 21.1147 17.2404 21.0821ZM2.90274 36.9338C2.97068 36.885 2.99262 37.0416 2.88073 37.0591C2.84543 37.0644 2.8649 36.9612 2.90274 36.9338ZM0.333978 39.6224C0.46243 39.6495 0.176093 39.8497 0.215064 39.7009C0.217571 39.6946 0.327442 39.6231 0.333978 39.6224ZM2.18082 37.7943C2.16581 37.7015 2.18482 37.6692 2.30813 37.5695C2.16058 37.7512 2.35935 37.6431 2.18082 37.7943ZM18.4596 21.0247C18.4568 21.0232 18.4546 21.0222 18.4527 21.0201C18.4554 21.0213 18.4576 21.0228 18.4596 21.0247ZM15.0082 18.7501C15.0089 18.6591 14.879 18.5327 14.8706 18.6163C14.87 18.6242 14.9559 18.7641 15.0082 18.7501ZM4.86511 34.9976C4.85091 34.9957 4.84866 34.9874 4.85378 34.9725C4.86036 34.978 4.86356 34.9863 4.86511 34.9976ZM15.7249 19.41C15.6862 19.4387 15.8655 19.649 15.8772 19.653C16.0469 19.7085 15.8064 19.4895 15.7249 19.41ZM10.3955 13.9027C10.382 13.896 10.3578 14.0476 10.4316 14.0542C10.4889 14.0592 10.4462 13.9276 10.3955 13.9027ZM1.82946 38.1985C1.76842 38.2609 1.68261 38.3489 1.6249 38.3243C1.67219 38.2887 1.79999 38.1672 1.82946 38.1985ZM0.485314 39.5823C0.508148 39.4604 0.67291 39.2918 0.786132 39.192C0.852875 39.2532 0.537714 39.4981 0.485314 39.5823ZM4.49932 35.4833C4.50696 35.4807 4.6792 35.3428 4.61494 35.3219C4.52082 35.2911 4.43259 35.5045 4.49932 35.4833ZM10.6456 14.2527C10.7438 14.2936 10.6783 14.0427 10.5352 14.038C10.4619 14.0354 10.6291 14.2457 10.6456 14.2527ZM14.6731 18.2867C14.5578 18.2187 14.7367 18.4915 14.8133 18.4793C14.7754 18.4331 14.7141 18.3108 14.6731 18.2867ZM17.7892 21.3889C17.6357 20.9698 17.5519 21.3614 17.6233 21.3926C17.6334 21.397 17.7931 21.399 17.7892 21.3889ZM1.48768 4.74406C1.42925 4.72053 1.51348 4.9386 1.57625 4.91622C1.61538 4.90205 1.52501 4.75915 1.48768 4.74406ZM17.1123 22.4791C17.1239 22.4663 17.1354 22.4537 17.1468 22.4413C17.1401 22.4524 17.1292 22.465 17.1123 22.4791ZM14.0293 17.2761C14.0447 17.6615 14.1661 17.5011 14.1827 17.5196C14.2183 17.5601 14.2557 17.6984 14.3347 17.763C14.2328 17.7001 14.1309 17.6372 14.0289 17.5744C14.0797 17.6531 14.5684 18.2901 14.61 18.2728C14.6694 18.2483 14.4808 18.0818 14.4795 18.0729C14.4775 18.0601 14.5687 17.9164 14.557 17.8954C14.5374 17.8609 14.0744 17.3814 14.0293 17.2761ZM17.1741 20.7994C17.2057 20.86 17.1717 20.9192 17.2042 20.93C17.2153 20.9336 17.2613 20.8911 17.2976 20.9051C17.2564 20.8699 17.2152 20.8346 17.1741 20.7994ZM13.5048 17.0707C13.5029 16.9592 13.7361 17.2399 13.7381 17.2543C13.7445 17.335 13.5063 17.1618 13.5048 17.0707ZM15.6685 19.2727C15.6624 19.26 15.4844 19.0434 15.4556 19.0746C15.484 19.1501 15.7381 19.4241 15.6685 19.2727ZM17.3311 20.9334C17.3944 21.0088 17.4789 21.1856 17.5315 21.1046C17.5314 21.1044 17.5313 21.1043 17.5312 21.1042C17.4645 21.0473 17.3978 20.9904 17.3311 20.9334ZM11.0222 14.3536C11.0026 14.1185 10.927 14.3127 11.0048 14.4618C11.0871 14.4496 11.0255 14.392 11.0222 14.3536ZM10.6958 13.8587C10.6798 13.8036 10.2945 13.4511 10.2932 13.5635C10.2926 13.6035 10.5532 13.7683 10.5589 13.782C10.5677 13.8027 10.438 13.7956 10.5621 13.8979C10.5769 13.8704 10.7015 13.8774 10.6958 13.8587ZM10.9859 14.1787C10.9414 13.9695 10.7623 14.0875 10.8568 14.1852C10.8936 14.2235 10.9921 14.2086 10.9859 14.1787ZM11.4886 14.7197C11.4575 14.6592 11.3574 14.5148 11.2238 14.4783C11.3311 14.5968 11.4385 14.7154 11.5458 14.834C11.587 14.8194 11.5158 14.7727 11.4883 14.7194C11.4884 14.7195 11.4885 14.7196 11.4886 14.7197ZM0.113057 40.7366C0.256099 40.6756 0.0414245 40.9284 0.0211501 40.9281C-0.0427349 40.9239 0.0491266 40.764 0.113057 40.7366ZM2.07379 2.605C2.06296 2.55981 2.10081 2.48644 2.0101 2.45222C2.0304 2.55584 2.05071 2.65946 2.07102 2.76308C2.2138 2.7197 2.08545 2.65456 2.07379 2.605ZM2.18469 2.02546C2.1957 2.03215 2.29392 1.84109 2.30916 2.05148C2.3195 2.19358 1.84174 1.83205 1.83172 1.69243C1.94428 1.74769 2.09095 1.96683 2.18469 2.02546ZM2.09127 0.666873C2.09813 0.650638 2.27236 0.795097 2.28236 0.821741C2.33467 0.961814 2.05478 0.75411 2.09127 0.666873ZM2.56485 1.20796C2.51946 1.10478 2.701 1.25435 2.73337 1.32013C2.71095 1.35145 2.57211 1.22366 2.56485 1.20796ZM3.24072 41.7562C3.41959 41.7711 3.27759 41.4898 3.19785 41.6575C3.19401 41.6655 3.23247 41.7549 3.24072 41.7562ZM2.39203 0.680856C2.43743 0.784037 2.25588 0.634473 2.22351 0.568694C2.2461 0.537602 2.38495 0.665312 2.39203 0.680856ZM3.53298 41.9289C3.71022 41.8899 3.43356 41.6947 3.41068 41.6988C3.31806 41.7175 3.22503 42.0008 3.21019 42.0628C3.45412 41.7409 3.44949 41.9473 3.53298 41.9289ZM3.87782 41.2879C3.95056 41.1623 3.65057 41.372 3.66937 41.4863C3.71502 41.4331 3.85725 41.3238 3.87782 41.2879ZM4.55105 40.7514C4.61247 40.7056 4.79015 40.5646 4.77885 40.5008C4.72798 40.5666 4.5346 40.6907 4.55105 40.7514ZM4.78353 40.7389C4.9173 40.7042 4.78801 40.5384 4.73718 40.6793C4.7352 40.6848 4.77766 40.7392 4.78353 40.7389ZM5.30168 40.3155C5.41517 40.3178 5.33262 40.1135 5.24092 40.1997C5.21395 40.2256 5.28915 40.3147 5.30168 40.3155ZM3.92308 42.0442C4.02613 41.9896 4.02269 41.7862 3.84568 41.9449C3.88807 41.8699 3.93045 41.7948 3.97284 41.7198C3.69789 41.8856 3.85722 42.0092 3.78898 42.0673C3.6935 42.1483 3.58203 42.0258 3.56235 41.9716C3.56347 42.1155 3.26135 42.4275 3.09989 42.6206C3.28436 42.4924 3.58708 42.2877 3.75837 42.1507C3.80736 42.1116 3.81702 42.0368 3.85766 42.0024C3.92298 41.9474 3.91701 42.047 3.92277 42.0446C3.92288 42.0445 3.92297 42.0444 3.92308 42.0442ZM5.91418 39.6919C6.14061 39.5942 5.89487 39.556 5.83076 39.6734C5.82889 39.6793 5.90858 39.6944 5.91418 39.6919ZM2.62155 0.0344471C2.77371 0.311682 2.5387 0.231534 3.10582 0.568763C2.83245 0.461341 3.03337 0.618758 2.96203 0.61533C2.90519 0.612204 2.81829 0.477469 2.82656 0.597001C2.80314 0.452127 2.42247 0.0953693 2.41606 0.0691655C2.41621 0.0693219 2.41636 0.0694783 2.41651 0.0696347C2.41258 0.0539753 2.57293 -0.0539545 2.62155 0.0344471ZM4.93104 41.1206C5.16012 41.2378 4.90167 40.944 5.15193 40.9792C5.07918 40.6301 4.76784 41.3729 4.52563 41.2633C5.1145 40.7013 3.97306 41.4751 4.63736 41.3298C4.21351 41.5699 4.56348 41.4719 4.54718 41.5569C4.52957 41.6477 4.3053 41.7985 4.38022 41.8528C4.38032 41.8527 4.38043 41.8526 4.38053 41.8525C4.48896 41.7322 4.59739 41.6119 4.70582 41.4916C4.45381 41.467 4.72716 41.2717 4.9207 41.3037C4.92415 41.2427 4.92759 41.1817 4.93104 41.1206ZM4.15866 41.6468C4.17304 41.6385 4.39904 41.3672 4.3548 41.3558C4.30387 41.3718 3.9767 41.7505 4.15866 41.6468ZM3.1077 42.7858C3.1963 42.6957 3.36037 42.5827 3.35514 42.4814C3.2665 42.5715 3.10242 42.6845 3.1077 42.7858ZM7.66263 38.1372C7.7314 37.9792 7.37205 38.3216 7.52407 38.2694C7.53145 38.2667 7.65915 38.1448 7.66263 38.1372ZM5.16033 40.8324C5.32849 40.7676 5.10326 40.656 5.06312 40.7864C5.06085 40.794 5.15259 40.8354 5.16033 40.8324ZM2.81477 0.190893C2.86436 0.157822 3.14362 0.502998 3.19871 0.558734C3.12863 0.564895 2.75792 0.2288 2.81477 0.190893ZM3.10925 43.0981C3.43567 43.0652 3.49981 42.651 3.52975 42.6279C3.55961 42.6051 3.58476 42.7111 3.59246 42.7068C3.60966 42.6966 3.88088 42.4075 3.88969 42.3893C3.89569 42.376 3.75299 42.3369 3.78093 42.2499C3.72214 42.4155 3.18327 42.9019 3.16728 42.9389C3.15514 42.9677 3.40573 42.9055 3.10956 43.0978C3.10946 43.0979 3.10935 43.098 3.10925 43.0981ZM3.61524 42.5807C3.50727 42.6136 3.6963 42.4102 3.75754 42.3761C3.89386 42.3005 3.62871 42.5761 3.61524 42.5807ZM4.11733 42.1376C4.14818 42.1234 4.35591 41.9263 4.32968 41.8667C4.17901 41.909 4.04681 42.1693 4.11733 42.1376ZM6.33504 39.8528C6.3814 39.7942 6.55733 39.6804 6.52773 39.6351C6.48129 39.6937 6.30542 39.8076 6.33504 39.8528ZM4.19777 0.948903C4.14316 0.829695 4.35582 1.02185 4.39894 1.09637C4.37691 1.12419 4.20239 0.959075 4.19777 0.948903ZM5.54088 41.1649C5.5831 41.1446 6.18132 40.4741 6.25157 40.3667C6.13698 40.427 5.51352 41.0616 5.49927 41.1041C5.49521 41.1166 5.53516 41.1671 5.54088 41.1649ZM4.20257 42.5715C4.20072 42.6847 4.0965 42.6581 4.08841 42.6647C4.00882 42.7292 3.87396 42.8925 3.85271 42.8071C3.99975 42.6997 4.20653 42.3465 4.20257 42.5715ZM6.63129 40.0527C6.82351 39.8144 6.35604 40.1763 6.46782 40.1781C6.47479 40.1779 6.61144 40.0774 6.63129 40.0527ZM5.48706 41.2525C5.48505 41.3444 4.81921 41.9494 4.71848 42.0525C4.72575 41.8792 4.8614 41.8661 4.97829 41.7379C5.00973 41.7032 4.96652 41.6785 4.96997 41.6748C5.02497 41.6152 5.02244 41.6975 5.05795 41.6623C5.08026 41.64 5.4898 41.123 5.48706 41.2525ZM4.2083 42.6427C4.20513 42.7098 3.82718 43.1244 3.80295 43.1323C3.62209 43.1915 4.16677 42.6631 4.2083 42.6427ZM5.61829 41.2654C5.64721 41.4285 5.27126 41.6848 5.43637 41.4195C5.45235 41.3943 5.58031 41.3467 5.61829 41.2654ZM6.7003 40.1655C6.71361 40.1576 6.95477 39.9489 6.9281 39.9149C6.88411 39.9362 6.54995 40.2573 6.7003 40.1655ZM6.68892 40.3846C6.69354 40.3784 6.58247 40.3741 6.694 40.2748C6.70337 40.2666 6.78598 40.3148 6.89246 40.157C6.91399 40.1249 6.91117 40.0399 6.90547 40.0403C6.66502 40.0782 6.45449 40.6934 6.68892 40.3846ZM4.25495 42.7026C4.30409 42.7083 4.33643 42.8417 4.24838 42.8476C4.21052 42.85 4.19727 42.7637 4.25495 42.7026ZM7.43095 39.4705C7.35242 39.6519 7.76696 39.2461 7.77468 39.2124C7.73024 39.195 7.43892 39.4524 7.43095 39.4705ZM4.78926 0.775704C4.78916 0.7756 4.78906 0.775496 4.78896 0.775392C4.88605 0.897786 4.77684 0.86985 4.7806 0.876346C4.95009 1.17345 4.98388 1.01783 5.03125 1.04393C5.13303 1.0997 5.00489 1.19972 5.18359 1.28696C4.89666 1.13451 5.12307 1.3072 5.08805 1.35362C4.94437 1.54225 4.87892 0.981968 4.73597 0.90585C4.71608 0.895215 4.77335 1.06112 4.71964 1.03656C4.54517 0.95656 4.41657 0.3062 4.78926 0.775704ZM4.22032 42.8911C4.21931 42.9908 3.78959 43.3355 3.85021 43.1921C3.85998 43.1691 4.22243 42.7451 4.22032 42.8911ZM22.1322 24.677C22.0831 24.8127 22.346 24.6436 22.3522 24.5708C22.3552 24.5346 22.1538 24.6174 22.1322 24.677ZM22.9983 19.1898C22.8806 19.0864 22.5877 19.1422 22.751 19.2544C22.7684 19.2662 22.9862 19.2267 22.9983 19.1898ZM16.5535 30.5775C16.731 30.5229 16.606 30.4145 16.5241 30.5018C16.4951 30.5326 16.5479 30.5792 16.5535 30.5775ZM20.8845 26.1076C20.9 26.1 21.0241 25.9577 20.9922 25.9361C20.9272 25.9701 20.7825 26.1556 20.8845 26.1076ZM16.5341 30.631C16.5804 30.541 16.3787 30.5767 16.3797 30.7428C16.4147 30.6932 16.5294 30.6402 16.5341 30.631ZM6.11475 41.279C6.12276 41.1738 6.29739 41.0241 6.38093 40.9218C6.45371 40.973 6.169 41.2006 6.11475 41.279ZM23.2717 23.7311C23.3306 23.5821 23.0731 23.7734 23.152 23.8098C23.158 23.81 23.2695 23.7372 23.2717 23.7311ZM12.9027 34.3661C12.9402 34.2526 12.6515 34.4476 12.783 34.4447C12.7889 34.444 12.9007 34.3723 12.9027 34.3661ZM11.8405 35.4114C11.9101 35.3654 12.149 35.1127 12.0179 35.1739C11.9976 35.1834 11.8104 35.3735 11.8405 35.4114ZM5.08292 1.00634C5.11682 0.911884 5.27952 1.1094 5.29372 1.14655C5.29904 1.16139 5.0389 1.12933 5.08292 1.00634ZM17.3032 29.8293C17.354 29.761 17.5222 29.6194 17.5152 29.5587C17.4501 29.6394 17.2163 29.7833 17.3032 29.8293ZM22.8012 24.2139C22.9613 24.1903 23.108 24.0261 22.9783 23.9755C22.8148 24.1554 23.0817 24.0344 22.8012 24.2139ZM16.2302 31.0937C16.2828 31.0505 16.2309 30.9274 16.2214 30.9289C16.1308 30.9428 16.149 31.1084 16.2302 31.0937ZM19.7034 27.3886C19.7438 27.4225 19.8781 27.2506 19.8337 27.2477C19.8189 27.2466 19.6707 27.3612 19.7034 27.3886ZM8.11981 39.2667C8.22356 39.2291 8.0452 39.4791 7.94241 39.5042C7.85414 39.4791 8.10709 39.2718 8.11981 39.2667ZM14.8979 32.4152C14.9467 32.4769 15.1518 32.2035 15.0123 32.2539C14.9773 32.2666 14.8817 32.3945 14.8979 32.4152ZM12.6985 34.8036C12.7907 34.5759 12.0766 35.2132 12.3348 35.1146C12.3532 35.1075 12.6903 34.8233 12.6985 34.8036ZM11.5678 35.8793C11.6026 35.8584 11.7766 36.0555 11.5908 36.1011C11.5666 36.1072 11.5866 35.9874 11.5631 35.9888C11.5495 35.9898 11.2766 36.2168 11.2696 36.2327C11.2624 36.2501 11.3369 36.294 11.3312 36.3133C11.3248 36.335 11.1202 36.439 11.0402 36.5199C10.8894 36.6725 10.9233 36.7379 10.9112 36.7506C10.8757 36.7876 10.78 36.8146 10.7075 36.889C10.3423 37.2641 9.8256 37.8787 9.42963 38.0722C9.73018 37.8494 9.93073 37.5534 10.1735 37.2767C10.2028 37.4557 10.4705 36.8112 10.3263 37.2002C10.4221 37.0497 11.4551 35.949 11.5675 35.8796C11.5676 35.8795 11.5677 35.8794 11.5678 35.8793ZM22.6205 18.6972C22.7516 18.7034 22.3934 18.3651 22.2901 18.4075C22.3252 18.4641 22.6049 18.6958 22.6205 18.6972ZM22.8595 24.7147C22.8386 24.7582 22.9336 24.9114 22.7027 25.0211C22.7025 25.0212 22.7023 25.0214 22.7022 25.0215C22.6347 25.0536 22.66 24.9667 22.6401 24.9652C22.6324 24.9643 22.4174 25.06 22.5342 24.9202C22.7122 24.707 22.6456 24.9925 22.75 24.8881C22.7627 24.8753 22.8901 24.6091 22.8638 24.6062C22.8609 24.6057 22.8166 24.6799 22.8007 24.6838C22.7408 24.6987 22.7195 24.6422 22.7125 24.6457C22.6908 24.6584 22.4489 25.0397 22.3458 25.0289C22.3125 25.0255 22.7757 24.4641 22.8052 24.4534C22.8238 24.4466 22.9271 24.558 22.9507 24.5551C22.9627 24.5535 23.1257 24.305 23.1621 24.2876C23.1727 24.2826 23.1817 24.2796 23.1885 24.2777C23.1241 24.2765 23.311 24.0898 23.3433 24.1325C23.355 24.1503 23.2194 24.2721 23.2122 24.2742C23.2091 24.2752 23.2059 24.2755 23.2032 24.2761C23.2704 24.2891 22.8387 24.728 22.9924 24.6923C22.9011 24.8526 22.9207 24.587 22.8595 24.7147ZM22.3274 25.394C22.3289 25.3697 22.3303 25.3454 22.3318 25.3211C22.1415 25.572 21.8348 25.7764 21.5839 26.0344C21.5201 26.0998 21.6633 26.0927 21.5607 26.1598C21.4784 26.2135 21.3395 26.2263 21.3615 26.1749C21.3668 26.1623 21.5453 26.0637 21.6092 25.9895C21.7979 25.7705 21.6871 25.7642 21.6972 25.7506C21.7085 25.7356 21.8774 25.6467 21.9448 25.5739C22.1141 25.3907 22.1568 25.2733 22.4427 25.0764C22.3449 25.2556 22.5058 25.2622 22.3274 25.394ZM14.0674 33.6054C14.0968 33.6507 13.9206 33.7644 13.8742 33.823C13.8446 33.7778 14.021 33.664 14.0674 33.6054ZM11.8064 7.32341C11.7007 7.3388 12.0141 7.69065 11.9789 7.55164C11.9712 7.52084 11.8473 7.36617 11.8064 7.32341ZM13.2454 8.87362C13.3065 8.902 13.174 8.67708 13.1264 8.72412C13.1113 8.73936 13.2375 8.86998 13.2454 8.87362ZM19.4463 28.2255C19.4399 28.2359 19.3052 28.3464 19.2982 28.3472C19.1524 28.3653 19.5885 27.9943 19.4463 28.2255ZM15.1166 10.6392C14.9228 10.5217 15.3665 11.0117 15.2773 10.8168C15.2728 10.8071 15.1259 10.6449 15.1166 10.6392ZM15.7691 11.2854C15.7302 11.2499 15.5872 11.063 15.5661 11.0792C15.5324 11.1056 15.6984 11.3173 15.7691 11.2854ZM16.4319 31.3543C16.5193 31.4042 16.2514 31.5732 16.1854 31.6584C16.0979 31.6086 16.366 31.4395 16.4319 31.3543ZM17.8412 30.0126C16.9892 30.9958 17.0402 30.6456 17.8613 29.9241C17.9071 29.9666 17.895 29.9506 17.8412 30.0126ZM16.6716 31.1949C16.6599 31.1176 16.7761 31.0249 16.8493 30.9571C16.8678 31.0002 16.7138 31.1357 16.6716 31.1949ZM11.5108 6.82884C11.624 6.83212 11.8064 7.15814 11.7383 7.13493C11.7229 7.12914 11.4588 6.83769 11.5108 6.82884ZM19.4299 28.3615C19.5188 28.406 19.2188 28.6582 19.1829 28.6649C19.0383 28.692 19.4228 28.3987 19.4299 28.3615ZM15.2043 32.7319C15.2093 32.833 15.0454 32.9464 14.9569 33.0357C14.9515 32.9504 15.1288 32.8074 15.2043 32.7319ZM15.8801 32.1225C15.8766 32.1301 15.7493 32.251 15.7414 32.2543C15.5891 32.3066 15.949 31.9643 15.8801 32.1225ZM5.14863 0.124112C5.15442 0.126627 5.24382 0.225032 5.24505 0.230293C5.2769 0.364904 5.00884 0.0693116 5.14863 0.124112Z" fill="white"/>
</svg>
